<?xml version="1.0"?><svg width="640" height="480" xmlns="http://www.w3.org/2000/svg">
 <title>Flippled Wide Thought Bubble</title>
 <defs>
  <filter id="svg_1_blur">
   <feGaussianBlur stdDeviation="1" in="SourceGraphic"/>
  </filter>
 </defs>
 <metadata id="metadata1906">image/svg+xml</metadata>
 <g>
  <title>Layer 1</title>
  <g filter="url(#svg_1_blur)" transform="rotate(-179.67343139648438 325.5299987792968,251.02639770507807) " id="svg_1">
   <path id="svg_2" d="m37.096039,39.102482c-4.447525,4.10268 -4.359871,9.268497 0.220947,12.99818c4.734253,3.855263 10.693115,3.778824 14.996521,-0.191376c4.447601,-4.104141 4.359833,-9.268536 -0.220963,-12.998199c-4.734238,-3.855244 -10.69313,-3.778816 -14.996506,0.191395zm32.461853,16.742855c-11.879562,5.586723 -11.686844,21.837502 0.322739,27.219452c9.052414,4.057526 20.045288,1.325577 24.464035,-6.081673c8.410522,-14.096817 -8.711197,-28.698128 -24.786774,-21.137779zm46.099106,25.531563c-15.562347,7.211929 -21.765015,23.644501 -13.799271,36.560631c8.318909,13.488861 27.278793,18.865204 42.180176,11.960846c15.562363,-7.210541 21.765152,-23.644341 13.799438,-36.560448c-8.319092,-13.488831 -27.278961,-18.865402 -42.180344,-11.961029zm235.109665,25.005684c-20.311279,3.819633 -33.281403,8.483994 -48.812012,17.555893l-8.427582,4.922607l-14.434875,-6.174484c-7.940308,-3.396072 -19.401459,-7.073822 -25.471832,-8.171143c-56.798401,-10.273155 -112.418198,19.597626 -126.922577,68.164108c-1.974045,6.610519 -3.582291,9.584427 -5.003998,9.253708c-1.152283,-0.266556 -7.771194,-0.803619 -14.70874,-1.193115c-22.972763,-1.288727 -41.692505,5.119415 -57.855865,19.808228c-9.625816,8.746414 -13.806808,14.95105 -17.652489,26.194473c-5.174156,15.12616 -1.997711,36.392548 7.436157,49.78421c5.972298,8.478516 19.391258,19.319092 29.18499,23.578674l9.074493,3.945801l1.96994,8.883026c7.454086,33.612579 42.591721,58.766083 82.09256,58.766083l9.158051,0l1.001831,8.308014c3.925568,32.553192 32.296082,62.326233 70.400269,73.880615c8.706665,2.64035 13.449402,3.107635 31.534363,3.107635c18.083374,0 22.826111,-0.467285 31.534332,-3.107635c28.787689,-8.729431 51.703705,-27.073395 63.270508,-50.646301c2.478607,-5.051208 5.300934,-8.870087 6.440887,-8.71286c1.116333,0.153534 6.286346,1.6185 11.489563,3.255432c12.880188,4.051788 35.736267,5.008484 50.033936,2.094543c27.624084,-5.628967 52.225586,-22.400421 63.836548,-43.51886c3.635925,-6.613159 4.919373,-7.836365 7.536682,-7.179199c7.038513,1.769958 28.969116,2.227875 37.841248,0.7901c15.213745,-2.464294 31.159058,-9.839783 43.381775,-20.069183c35.200256,-29.454193 36.062683,-75.426666 1.989868,-106.016388c-18.05188,-16.208466 -40.725098,-23.889008 -66.868591,-22.654907l-13.614929,0.643738l-1.892029,-10.16922c-10.541992,-56.644806 -66.414551,-97.677101 -132.493225,-97.302643c-8.238373,0.046585 -19.511841,0.937561 -25.049255,1.97905z" stroke-width="6" stroke="#000000" fill="#ffffff"/>
  </g>
 </g>
</svg>